<?xml version="1.0" encoding="UTF-8"?>
<svg version="1.1" xmlns="http://www.w3.org/2000/svg" width="1024" height="1024">
<path d="M0 0 C1.15165146 -0.0049926 1.15165146 -0.0049926 2.3265686 -0.01008606 C3.95908001 -0.01515751 5.59160182 -0.01749432 7.22412109 -0.01733398 C9.68214987 -0.01949225 12.13970865 -0.03756564 14.59765625 -0.05664062 C23.41206393 -0.08931668 31.6880047 0.39249075 40.3515625 2.16796875 C42.51090902 2.54374553 44.67110633 2.91465882 46.83203125 3.28125 C78.87700039 8.94430842 109.43483159 19.36766032 135.6640625 39.234375 C138.25590027 41.3012821 138.25590027 41.3012821 141.3515625 42.16796875 C143.05281986 43.79931143 144.71337971 45.4732969 146.3515625 47.16796875 C148.49574715 49.19242736 150.67507555 51.17832639 152.8515625 53.16796875 C162.07071244 61.59568355 170.84773467 70.40766112 178.16015625 80.57421875 C179.39930698 82.31103047 179.39930698 82.31103047 181.3515625 84.16796875 C184.14911855 88.7583248 186.73762844 93.4712003 189.3515625 98.16796875 C189.70089844 98.78994141 190.05023437 99.41191406 190.41015625 100.05273438 C212.90382562 140.24425304 218.84622611 189.4925627 207.6640625 234.16796875 C207.41269531 235.05484375 207.16132812 235.94171875 206.90234375 236.85546875 C206.19709945 239.4202967 206.19709945 239.4202967 206.3515625 243.16796875 C205.6915625 243.16796875 205.0315625 243.16796875 204.3515625 243.16796875 C204.0421875 244.93140625 204.0421875 244.93140625 203.7265625 246.73046875 C197.76681003 273.21825751 180.79075784 297.03992788 164.2109375 317.85546875 C154.61122597 329.96321303 146.77431026 343.18912492 142.5390625 358.10546875 C142.34425293 358.78359619 142.14944336 359.46172363 141.94873047 360.16040039 C138.77603499 372.16772501 138.05527314 384.40285058 138.08032227 396.76318359 C138.07591902 398.14979351 138.07061116 399.53640079 138.06448364 400.92300415 C138.05311328 403.87423687 138.04753399 406.82539906 138.04660225 409.77665329 C138.04463818 414.45147801 138.02646308 419.12615918 138.00584412 423.80093384 C137.95699073 435.40008587 137.92575567 446.99927595 137.90454102 458.59851074 C137.88798579 467.64192662 137.86512503 476.68521629 137.82152027 485.72854769 C137.79985038 490.36835824 137.79167568 495.00792828 137.79391301 499.6477859 C137.79223873 502.53705972 137.77814633 505.42617781 137.76070023 508.31539536 C137.75249455 510.2780166 137.75900451 512.24068242 137.7660675 514.20330811 C137.70356765 521.88315675 137.41497675 529.25542049 132.51953125 535.5078125 C131.86597656 536.03503906 131.21242188 536.56226563 130.5390625 537.10546875 C129.57033203 537.92337891 129.57033203 537.92337891 128.58203125 538.7578125 C123.06163198 542.24794234 117.6285007 542.48165409 111.3046875 542.546875 C110.45227478 542.56386948 109.59986206 542.58086395 108.72161865 542.59837341 C106.0150073 542.651242 103.30840965 542.69170319 100.6015625 542.73046875 C97.88050742 542.77441871 95.15956935 542.82107789 92.43865967 542.87327576 C90.74933724 542.90520291 89.05991088 542.93210237 87.37042236 542.95350647 C83.22780176 542.92301221 83.22780176 542.92301221 79.3515625 544.16796875 C79.3515625 543.50796875 79.3515625 542.84796875 79.3515625 542.16796875 C71.4315625 542.16796875 63.5115625 542.16796875 55.3515625 542.16796875 C55.0215625 542.82796875 54.6915625 543.48796875 54.3515625 544.16796875 C54.3515625 543.50796875 54.3515625 542.84796875 54.3515625 542.16796875 C53.79902361 542.17073413 53.24648472 542.17349951 52.67720222 542.17634869 C39.19622767 542.2427713 25.71528201 542.29213632 12.23417854 542.32340527 C5.71465058 542.33903695 -0.80475894 542.36022985 -7.32421875 542.39428711 C-13.62009973 542.42696924 -19.91586704 542.44484054 -26.21182632 542.45260048 C-28.60949619 542.45812807 -31.00716009 542.46892203 -33.40478134 542.48515892 C-36.77243063 542.50705047 -40.13961482 542.50993073 -43.50732422 542.50854492 C-44.98224083 542.52472366 -44.98224083 542.52472366 -46.48695374 542.54122925 C-53.70418552 542.50925573 -61.12580766 541.76477921 -67.0859375 537.37109375 C-67.6015625 536.7265625 -68.1171875 536.08203125 -68.6484375 535.41796875 C-69.1846875 534.78375 -69.7209375 534.14953125 -70.2734375 533.49609375 C-73.23130973 528.48787827 -73.89923107 523.22617621 -73.96728516 517.49829102 C-73.99708969 515.5770919 -73.99708969 515.5770919 -74.02749634 513.61708069 C-74.03936908 512.23951388 -74.05103215 510.86194524 -74.0625 509.484375 C-74.08123305 508.05947271 -74.10080802 506.63458126 -74.1211853 505.20970154 C-74.17228719 501.47964908 -74.21202949 497.74956075 -74.24932861 494.01934814 C-74.28950674 490.2048674 -74.34053573 486.39053307 -74.390625 482.57617188 C-74.48712404 475.10687166 -74.57161104 467.63749998 -74.6484375 460.16796875 C-78.50513671 458.88240235 -82.11460258 459.08390117 -86.12890625 459.140625 C-87.86913844 459.15329793 -89.60937295 459.16565682 -91.34960938 459.17773438 C-94.07193353 459.20226857 -96.79413409 459.22994711 -99.51635742 459.26391602 C-124.89248071 459.56042606 -148.95008809 457.04330328 -168.3359375 438.91796875 C-187.96630066 418.22525652 -187.85776762 391.47279038 -187.6484375 364.85546875 C-187.62181932 361.38021195 -187.60191862 357.9050075 -187.5859375 354.4296875 C-187.57763916 353.64228683 -187.56934082 352.85488617 -187.56079102 352.04362488 C-187.54614797 348.81226704 -187.61870228 346.2571744 -188.6484375 343.16796875 C-191.85834168 341.58668544 -195.14920134 340.7164022 -198.625 339.9140625 C-199.5428125 339.69943359 -200.460625 339.48480469 -201.40625 339.26367188 C-202.35242188 339.04646484 -203.29859375 338.82925781 -204.2734375 338.60546875 C-206.16173154 338.16784385 -208.04976461 337.72909096 -209.9375 337.2890625 C-210.76975098 337.09755615 -211.60200195 336.9060498 -212.45947266 336.70874023 C-214.6484375 336.16796875 -214.6484375 336.16796875 -217.6484375 335.16796875 C-217.6484375 334.50796875 -217.6484375 333.84796875 -217.6484375 333.16796875 C-218.24398438 332.91015625 -218.83953125 332.65234375 -219.453125 332.38671875 C-223.90920071 329.91288313 -226.66260398 325.60683514 -228.546875 320.9453125 C-234.73594388 296.87224586 -217.97943947 267.0250084 -207.0234375 246.60546875 C-203.51230493 240.03149784 -200.32588496 233.46411399 -197.7109375 226.48046875 C-197.45296387 225.8062085 -197.19499023 225.13194824 -196.92919922 224.43725586 C-192.05744818 210.75838712 -190.13321621 196.53971201 -188.98156738 182.14321899 C-184.66526559 129.51408284 -163.56485684 83.56256388 -123.40917969 48.64257812 C-118.06148713 44.16392269 -112.38235056 40.13238035 -106.6484375 36.16796875 C-105.771875 35.55566406 -104.8953125 34.94335938 -103.9921875 34.3125 C-97.77409083 30.17038181 -91.18686144 26.7143205 -84.5859375 23.23046875 C-83.64411621 22.73289062 -82.70229492 22.2353125 -81.73193359 21.72265625 C-80.84715332 21.26246094 -79.96237305 20.80226563 -79.05078125 20.328125 C-78.25148193 19.91183838 -77.45218262 19.49555176 -76.62866211 19.06665039 C-74.6484375 18.16796875 -74.6484375 18.16796875 -72.6484375 18.16796875 C-72.3184375 17.50796875 -71.9884375 16.84796875 -71.6484375 16.16796875 C-69.98413086 15.44384766 -69.98413086 15.44384766 -67.80078125 14.76953125 C-66.98593262 14.51333008 -66.17108398 14.25712891 -65.33154297 13.99316406 C-64.44611816 13.72084961 -63.56069336 13.44853516 -62.6484375 13.16796875 C-60.79556641 12.57163481 -58.94270203 11.97528 -57.08984375 11.37890625 C-55.13062753 10.76558639 -53.17098585 10.15362408 -51.2109375 9.54296875 C-50.23833984 9.23101562 -49.26574219 8.9190625 -48.26367188 8.59765625 C-42.04706786 6.67079969 -36.14932831 5.53333753 -29.6484375 5.16796875 C-29.3184375 4.17796875 -28.9884375 3.18796875 -28.6484375 2.16796875 C-28.6484375 2.82796875 -28.6484375 3.48796875 -28.6484375 4.16796875 C-25.52258873 3.69423376 -22.39793034 3.21305924 -19.2734375 2.73046875 C-18.38398438 2.59576172 -17.49453125 2.46105469 -16.578125 2.32226562 C-15.72734375 2.19013672 -14.8765625 2.05800781 -14 1.921875 C-12.82171631 1.74120483 -12.82171631 1.74120483 -11.61962891 1.55688477 C-3.75733435 0.00565424 -3.75733435 0.00565424 0 0 Z M-110.125 73.6171875 C-111.63100791 75.15022632 -113.20321245 76.41328685 -114.8984375 77.73046875 C-120.20965608 82.19427942 -124.20123881 87.96082111 -128.35546875 93.47070312 C-129.44833815 94.90530057 -130.57596237 96.31332143 -131.7109375 97.71484375 C-152.49721123 124.21734276 -159.49891885 156.4719112 -162.26242065 189.19525146 C-164.30557265 212.98958265 -170.42841081 234.49528121 -181.36621094 255.66308594 C-195.67658075 282.09060217 -195.67658075 282.09060217 -201.6484375 311.16796875 C-198.79559823 313.06986159 -197.36624609 313.59255396 -194.11328125 314.24609375 C-170.58696005 319.22856537 -170.58696005 319.22856537 -164.5859375 328.35546875 C-162.0046439 333.01282055 -161.48395629 336.88461424 -161.33203125 342.1953125 C-161.30092758 343.24034439 -161.30092758 343.24034439 -161.26919556 344.30648804 C-161.20341734 346.57270956 -161.14459768 348.83905279 -161.0859375 351.10546875 C-161.04174832 352.66235815 -160.99739566 354.21924292 -160.95288086 355.77612305 C-160.7265694 364.01538072 -160.61748756 372.23785304 -160.7109375 380.48046875 C-160.79657933 395.05911184 -158.69560361 408.53390303 -148.34375 419.64453125 C-137.57020958 429.32582333 -125.31875775 432.44356875 -111.19921875 432.4765625 C-109.19596075 432.50173189 -107.19270561 432.52712977 -105.18945312 432.55273438 C-102.0808188 432.58133919 -98.97223418 432.60540019 -95.86352539 432.62426758 C-64.53916184 432.85076874 -64.53916184 432.85076874 -54.6484375 441.16796875 C-53.9884375 441.16796875 -53.3284375 441.16796875 -52.6484375 441.16796875 C-51.98177083 442.83463542 -51.31510417 444.50130208 -50.6484375 446.16796875 C-50.30148331 446.92730713 -49.95452911 447.68664551 -49.59706116 448.46899414 C-48.52516601 451.51869437 -48.37746752 453.93537585 -48.34545898 457.1640625 C-48.32881699 458.3487915 -48.31217499 459.53352051 -48.29502869 460.75415039 C-48.28240746 462.66055298 -48.28240746 462.66055298 -48.26953125 464.60546875 C-48.2435664 466.61126323 -48.21759692 468.61705766 -48.1913538 470.62284851 C-48.15701286 473.4263737 -48.13140279 476.22995248 -48.10583496 479.03356934 C-48.06009701 483.93987627 -48.00471872 488.84606529 -47.94313049 493.75219727 C-47.91124866 496.36200284 -47.88433539 498.97187483 -47.86289978 501.58178711 C-47.84940994 502.76651611 -47.8359201 503.95124512 -47.82202148 505.171875 C-47.81250961 506.21158447 -47.80299774 507.25129395 -47.79319763 508.32250977 C-47.6538042 511.06247882 -47.39015107 513.52581802 -46.6484375 516.16796875 C-43.89600642 517.54418429 -41.69471998 517.2939185 -38.61291504 517.29495239 C-37.32569046 517.29777222 -36.03846588 517.30059204 -34.7122345 517.30349731 C-33.27755723 517.30155283 -31.84288011 517.29950465 -30.40820312 517.29736328 C-28.90378273 517.29871766 -27.39936267 517.3004978 -25.89494324 517.30267334 C-21.80207447 517.30724328 -17.70923084 517.30545991 -13.61636162 517.30229425 C-9.33982143 517.2997684 -5.06328344 517.30210882 -0.78674316 517.30368042 C6.39591866 517.30550145 13.57857021 517.30309754 20.76123047 517.29833984 C29.07389763 517.29289735 37.38654026 517.29466005 45.69920683 517.30016625 C52.82703471 517.30469926 59.95485519 517.305347 67.08268404 517.30272758 C71.34387902 517.30116585 75.60506247 517.30096822 79.86625671 517.30426407 C83.87168721 517.3071455 87.87708599 517.30516205 91.88251305 517.29936981 C93.3555515 517.29804368 94.82859261 517.29843385 96.30163002 517.30063248 C98.30643241 517.30334968 100.31124062 517.29934415 102.31604004 517.29495239 C104.00179012 517.29438685 104.00179012 517.29438685 105.72159576 517.29380989 C108.33131376 517.3464073 108.33131376 517.3464073 110.3515625 516.16796875 C110.35487265 515.48880716 110.35818279 514.80964558 110.36159325 514.10990334 C110.44318205 497.50491082 110.53538819 480.90001352 110.63908958 464.29514503 C110.6889908 456.26481614 110.73543413 448.23449631 110.7734375 440.20410156 C110.80661037 433.19635148 110.84657628 426.18867687 110.89435256 419.1810106 C110.91936924 415.4781976 110.94122026 411.77543302 110.95490646 408.07255936 C111.10379075 369.31669462 111.10379075 369.31669462 115.5390625 353.54296875 C115.75264404 352.76284424 115.96622559 351.98271973 116.1862793 351.17895508 C121.90706042 331.19779363 132.69160381 313.78447352 145.73242188 297.77148438 C155.32595221 285.9631365 162.88708371 273.79836831 169.4284668 260.06518555 C170.05237198 258.78288795 170.69779441 257.51087226 171.36254883 256.24926758 C174.01880851 251.18464896 175.82088858 246.09146824 177.4140625 240.60546875 C177.67155273 239.72560303 177.92904297 238.8457373 178.19433594 237.93920898 C181.40540378 226.74829163 183.42448298 215.68374158 184.6015625 204.10546875 C184.69405273 203.212229 184.78654297 202.31898926 184.88183594 201.39868164 C185.30753224 196.73501081 185.24173974 192.79302009 184.3515625 188.16796875 C184.3569982 185.91758955 184.40159128 183.66710535 184.4765625 181.41796875 C184.66524633 149.34171754 171.18911652 115.31576557 150.3515625 91.16796875 C148.23142249 88.45283385 146.12124717 85.73030945 144.015625 83.00390625 C143.46648437 82.39804687 142.91734375 81.7921875 142.3515625 81.16796875 C141.6915625 81.16796875 141.0315625 81.16796875 140.3515625 81.16796875 C140.0215625 80.17796875 139.6915625 79.18796875 139.3515625 78.16796875 C136.88371064 75.62093447 134.07622679 73.43485423 131.3515625 71.16796875 C130.13919922 70.12576172 130.13919922 70.12576172 128.90234375 69.0625 C104.97045735 48.85096664 75.31591945 35.20455373 44.3515625 30.16796875 C42.52431641 29.86246094 42.52431641 29.86246094 40.66015625 29.55078125 C-11.03192418 21.95141005 -73.0458425 34.27710577 -110.125 73.6171875 Z " fill="#0197FC" transform="translate(509.6484375,239.83203125)"/>
<path d="M0 0 C0.77472656 0.42410156 1.54945313 0.84820312 2.34765625 1.28515625 C11.07579621 6.51621175 16.74747181 14.41728254 20 24 C22.89741212 35.72576852 21.22559102 47.18770043 15.52734375 57.72265625 C9.63167608 66.96338359 1.50005336 72.23161113 -8.91796875 75.34765625 C-17.8144598 77.23069048 -26.51311098 76.15007998 -35.07421875 73.3125 C-37.29408875 72.72435957 -37.29408875 72.72435957 -39.8125 74.9375 C-42.93513763 77.7676374 -45.6567091 80.93175853 -48.39453125 84.12890625 C-50.17261726 86.2011768 -51.95750816 88.1844517 -54 90 C-54.66 90 -55.32 90 -56 90 C-56.20625 90.53625 -56.4125 91.0725 -56.625 91.625 C-58.57996944 95.0017654 -61.18223695 97.30474839 -64 100 C-62.69020362 102.83685756 -61.24361127 105.08843357 -59.1875 107.4375 C-58.70667969 107.99308594 -58.22585938 108.54867187 -57.73046875 109.12109375 C-55.55501531 111.48315494 -53.27413026 113.73377188 -51 116 C-49.86202259 117.13757594 -48.72426025 118.27536705 -47.58666992 119.41333008 C-46.65627144 120.34372856 -46.65627144 120.34372856 -45.70707703 121.29292297 C-37.13805135 129.86194865 -28.56902568 138.43097432 -20 147 C-19.28787354 146.71632568 -18.57574707 146.43265137 -17.84204102 146.14038086 C-7.71389446 142.25398913 2.18918588 141.22996433 12.62890625 144.8984375 C23.10376112 149.76484454 31.95376512 158.05493465 36 169 C39.21374575 179.14775152 38.60403297 190.02157751 34.22265625 199.7265625 C28.09265673 211.12483637 19.28322245 218.06871632 7 222 C-3.4700566 224.66542206 -13.95541095 221.78525386 -23.2421875 216.75390625 C-32.1094834 211.11450702 -38.12629754 202.90616881 -40.8828125 192.74609375 C-42.21187539 185.35212994 -41.93474929 178.66707049 -40.63867188 171.3293457 C-40.15390956 168.45959634 -39.86697367 166.39393787 -40.80859375 163.60546875 C-42.27817096 161.62515323 -43.80642091 161.06140924 -46 160 C-46.33 159.01 -46.66 158.02 -47 157 C-47.66 157 -48.32 157 -49 157 C-52.42556814 153.85989587 -55.40927308 150.41610289 -58.375 146.84375 C-60.48116237 144.45406578 -62.73780441 142.24255279 -65 140 C-66.01576318 138.96364927 -67.03003233 137.92583254 -68.04296875 136.88671875 C-69.09110033 135.82026777 -70.13927786 134.75386196 -71.1875 133.6875 C-71.72052734 133.13771484 -72.25355469 132.58792969 -72.80273438 132.02148438 C-74.16424956 130.64284322 -75.57840502 129.31660273 -77 128 C-77.66 128 -78.32 128 -79 128 C-80.02879613 126.35095291 -81.02213972 124.67975208 -82 123 C-86.18025501 117.32020592 -89.88829549 112.70938595 -96.89599609 111.11181641 C-101.17738908 110.79008738 -105.41055852 111.03399482 -109.6875 111.3125 C-111.17885346 111.3678074 -112.67040679 111.41797458 -114.16210938 111.46289062 C-117.77896629 111.58282059 -121.38816463 111.77180681 -125 112 C-125.32468262 112.67329346 -125.64936523 113.34658691 -125.98388672 114.0402832 C-126.41975098 114.93062256 -126.85561523 115.82096191 -127.3046875 116.73828125 C-127.73249512 117.61782471 -128.16030273 118.49736816 -128.60107422 119.40356445 C-133.46068647 128.42310657 -141.62338878 134.88197366 -151.31640625 138.1015625 C-163.13041487 141.03110809 -172.87627462 140.65131098 -183.9921875 134.984375 C-185.5 134 -185.5 134 -188 132 C-188.804375 131.46375 -189.60875 130.9275 -190.4375 130.375 C-199.7086186 121.78225593 -203.38062921 111.71239661 -204.05859375 99.3359375 C-203.87073108 88.64028949 -199.93584489 79.42077 -192.7734375 71.5546875 C-184.3824197 63.48332752 -175.88273986 59.38987327 -164.19921875 58.93359375 C-152.98689334 59.16632822 -142.96096838 62.61153129 -134.6015625 70.2578125 C-130.55253794 74.66236117 -127.45368445 79.18526218 -126 85 C-112.8 85 -99.6 85 -86 85 C-85.505 83.515 -85.505 83.515 -85 82 C-84.34 82 -83.68 82 -83 82 C-83 81.34 -83 80.68 -83 80 C-81.37897032 78.28891311 -79.70496537 76.62746694 -78 75 C-77.278125 74.236875 -76.55625 73.47375 -75.8125 72.6875 C-74 71 -74 71 -72 71 C-72 70.34 -72 69.68 -72 69 C-70.90323473 67.8346869 -69.79450536 66.67892632 -68.63671875 65.57421875 C-67.38651837 64.37175872 -66.16497738 63.13943176 -64.95703125 61.89453125 C-64.24933594 61.16621094 -63.54164063 60.43789063 -62.8125 59.6875 C-62.13832031 58.99011719 -61.46414063 58.29273438 -60.76953125 57.57421875 C-59 56 -59 56 -57 56 C-57.4132532 53.31385417 -57.83136312 50.65266336 -58.51171875 48.01953125 C-61.59281731 36.02291343 -60.42686154 25.20789448 -54.52734375 14.26953125 C-50.43170086 7.86948409 -45.55968504 3.75836058 -39 0 C-38.27554688 -0.43441406 -37.55109375 -0.86882812 -36.8046875 -1.31640625 C-26.1487418 -6.6443791 -10.18593818 -5.99942414 0 0 Z M-32.875 27.1875 C-34.75834355 31.89585889 -36.03125792 36.36709813 -34.1171875 41.25390625 C-31.7616231 45.27614358 -29.44468047 48.28273709 -25 50 C-20.55544948 51.04723175 -17.12974678 51.36934029 -12.75 49.9375 C-8.75811747 47.12503731 -5.76662196 44.58205801 -4.36328125 39.85546875 C-3.51403032 34.49514297 -4.19644408 30.76604507 -7 26 C-11.83089141 21.52258845 -14.95416344 20.64434004 -21.390625 20.71875 C-26.36054065 21.25442953 -29.60268514 23.36979933 -32.875 27.1875 Z M-175.875 90.0625 C-178.4705194 94.5325612 -178.68993687 98.97563621 -178 104 C-176.56357536 108.05702373 -174.67379195 110.99445198 -170.9453125 113.234375 C-166.35432628 115.04535226 -162.51275685 115.39692707 -157.80078125 113.8671875 C-154.79693839 112.42065146 -152.96360696 110.66037072 -151 108 C-151.04497842 105.72476911 -151.04497842 105.72476911 -152 104 C-151.01 104 -150.02 104 -149 104 C-148.46006237 97.38576402 -149.00814605 93.39439723 -153 88 C-160.4187403 81.64107974 -169.58408497 83.14249346 -175.875 90.0625 Z M-15 175 C-16.65353883 179.9606165 -16.8933248 184.9900192 -14.75 189.8125 C-10.82506588 194.9300548 -10.82506588 194.9300548 -5 197 C0.2410121 197.38822312 3.59155951 196.93896033 8 194 C11.46987891 190.34749588 12.30013186 187.4034317 12.5 182.5 C12.30013186 177.5965683 11.46987891 174.65250412 8 171 C-0.30735024 165.46176651 -8.73167492 167.57087398 -15 175 Z " fill="#0197FC" transform="translate(580,320)"/>
<path d="M0 0 C0.33 0.99 0.66 1.98 1 3 C-0.15234375 4.9375 -0.15234375 4.9375 -1.9375 7 C-2.50339844 7.680625 -3.06929687 8.36125 -3.65234375 9.0625 C-9.47525109 13.86809408 -15.99878668 14.44731178 -23.2421875 14.4765625 C-24.09177032 14.49214203 -24.94135315 14.50772156 -25.81668091 14.52377319 C-28.50277925 14.57090966 -31.18862179 14.59894676 -33.875 14.625 C-36.58262341 14.66152456 -39.29010271 14.70209081 -41.99758911 14.74765015 C-43.67578637 14.77482865 -45.35408978 14.79620081 -47.03244019 14.81118774 C-51.14870814 14.76445078 -51.14870814 14.76445078 -55 16 C-55 15.34 -55 14.68 -55 14 C-62.92 14 -70.84 14 -79 14 C-79.33 14.66 -79.66 15.32 -80 16 C-80 15.34 -80 14.68 -80 14 C-80.55253889 14.00276538 -81.10507778 14.00553076 -81.67436028 14.00837994 C-95.15533483 14.07480255 -108.63628049 14.12416757 -122.11738396 14.15543652 C-128.63691192 14.1710682 -135.15632144 14.1922611 -141.67578125 14.22631836 C-147.97166223 14.25900049 -154.26742954 14.27687179 -160.56338882 14.28463173 C-162.96105869 14.29015932 -165.35872259 14.30095328 -167.75634384 14.31719017 C-171.12399313 14.33908172 -174.49117732 14.34196198 -177.85888672 14.34057617 C-178.84216446 14.351362 -179.8254422 14.36214783 -180.83851624 14.3732605 C-188.20674269 14.34061805 -196.52828363 13.76474133 -202.125 8.4375 C-204 6 -204 6 -204 4 C-203.34 4 -202.68 4 -202 4 C-200.33333333 5.66666667 -198.66666667 7.33333333 -197 9 C-193.42407431 11.40433615 -189.85264159 11.283557 -185.68789673 11.26069641 C-184.94958945 11.26452196 -184.21128217 11.26834751 -183.45060194 11.27228898 C-180.97562192 11.28261117 -178.50087424 11.27862834 -176.02587891 11.2746582 C-174.25179326 11.27900514 -172.4777095 11.28418823 -170.70362854 11.29014587 C-165.88334722 11.30354984 -161.06314425 11.30411293 -156.24284792 11.30158257 C-152.21945989 11.3005137 -148.19608777 11.30539416 -144.17270315 11.310188 C-134.68055305 11.32128826 -125.18844252 11.32171783 -115.69628906 11.31567383 C-105.90330704 11.30963414 -96.1104687 11.32194374 -86.3175112 11.3432439 C-77.91060298 11.36085712 -69.50374051 11.36686165 -61.09681451 11.36360615 C-56.07536373 11.36179253 -51.05401541 11.36443729 -46.03258133 11.37832069 C-41.30968968 11.39088967 -36.58702201 11.38896373 -31.86413383 11.37590981 C-30.13153826 11.37354236 -28.39892697 11.37628475 -26.66634941 11.38453293 C-24.29932972 11.39498813 -21.93306325 11.38691002 -19.56607056 11.3742218 C-18.53998639 11.38528323 -18.53998639 11.38528323 -17.49317324 11.39656812 C-12.28684412 11.33794132 -8.20109066 10.05469983 -4.35546875 6.46484375 C-1.96740826 3.36796765 -1.96740826 3.36796765 0 0 Z " fill="#068EED" transform="translate(644,768)"/>
<path d="M0 0 C1.12775345 0.03541649 1.12775345 0.03541649 2.27828979 0.07154846 C4.68311316 0.14821245 7.08761668 0.23222469 9.4921875 0.31640625 C11.12107802 0.36962422 12.74998422 0.42236464 14.37890625 0.47460938 C18.3752031 0.60383123 22.37122842 0.73964452 26.3671875 0.87890625 C26.3671875 1.20890625 26.3671875 1.53890625 26.3671875 1.87890625 C25.6551416 1.89348877 24.9430957 1.90807129 24.20947266 1.9230957 C-5.9714529 2.60606403 -34.38226245 5.586506 -62.9453125 15.64453125 C-65.86646844 16.62237582 -68.60227376 17.38170849 -71.6328125 17.87890625 C-68.6618513 15.42565538 -65.95811471 14.11345534 -62.30859375 12.90625 C-61.27927734 12.56400391 -60.24996094 12.22175781 -59.18945312 11.86914062 C-58.11888672 11.52173828 -57.04832031 11.17433594 -55.9453125 10.81640625 C-54.89408203 10.46513672 -53.84285156 10.11386719 -52.75976562 9.75195312 C-36.59239686 4.42990081 -36.59239686 4.42990081 -29.6328125 4.87890625 C-29.3028125 3.88890625 -28.9728125 2.89890625 -28.6328125 1.87890625 C-28.6328125 2.53890625 -28.6328125 3.19890625 -28.6328125 3.87890625 C-25.50696373 3.40517126 -22.38230534 2.92399674 -19.2578125 2.44140625 C-18.36835938 2.30669922 -17.47890625 2.17199219 -16.5625 2.03320312 C-15.71171875 1.90107422 -14.8609375 1.76894531 -13.984375 1.6328125 C-12.80609131 1.45214233 -12.80609131 1.45214233 -11.60400391 1.26782227 C-7.51297037 0.46066145 -4.31032494 -0.15889303 0 0 Z " fill="#097EDE" transform="translate(509.6328125,240.12109375)"/>
<path d="M0 0 C0.33 0.66 0.66 1.32 1 2 C-0.27038876 4.79729832 -1.60562399 7.51520439 -3 10.25 C-9.81136776 24.15371275 -14.31582711 38.66333092 -17.4375 53.8125 C-17.60161377 54.6058374 -17.76572754 55.3991748 -17.93481445 56.21655273 C-18.81571067 60.86652142 -19.08258304 65.23950178 -18.99243164 69.96704102 C-19.00219052 72.58840074 -19.42469372 75.00957838 -20 77.5625 C-20.185625 78.40941406 -20.37125 79.25632812 -20.5625 80.12890625 C-20.7790625 81.05509766 -20.7790625 81.05509766 -21 82 C-21.33 82 -21.66 82 -22 82 C-23.88820563 53.84475609 -13.7717155 25.66640332 -1 1 C-0.67 0.67 -0.34 0.34 0 0 Z " fill="#0A7FDE" transform="translate(344,340)"/>
<path d="M0 0 C3.28811523 5.27627793 1.92803852 11.12693871 1 17 C-1.77780217 27.29082151 -8.23660475 35.9669088 -17 42 C-26.38324851 46.95404799 -36.46041288 49.70547437 -47 47 C-47.33 46.34 -47.66 45.68 -48 45 C-46.98421875 45.04640625 -45.9684375 45.0928125 -44.921875 45.140625 C-36.09745741 45.42028719 -28.05240667 45.15442637 -20 41 C-18.63035674 39.70399348 -17.29112563 38.37424531 -16 37 C-15.21625 36.5875 -14.4325 36.175 -13.625 35.75 C-6.53734513 31.02489675 -2.90745947 23.08922603 -1 15 C-0.33567712 10.02068274 -0.13546449 5.01895952 0 0 Z " fill="#0A83E2" transform="translate(616,495)"/>
<path d="M0 0 C0.33 0 0.66 0 1 0 C2.23145446 5.74678749 2.1475705 11.40424128 2.125 17.25 C2.12886719 18.23613281 2.13273438 19.22226562 2.13671875 20.23828125 C2.12840166 26.55095095 1.75707527 32.73300331 1 39 C0.67 39 0.34 39 0 39 C0.01160156 37.91460937 0.02320313 36.82921875 0.03515625 35.7109375 C0.04454138 34.26562673 0.05364081 32.82031409 0.0625 31.375 C0.07087891 30.66214844 0.07925781 29.94929688 0.08789062 29.21484375 C0.10240723 26.05022293 0.02799347 23.15643407 -0.53125 20.03125 C-1.15555027 15.99410824 -0.86181204 12.18463462 -0.5625 8.125 C-0.51029297 7.34125 -0.45808594 6.5575 -0.40429688 5.75 C-0.27571149 3.8329088 -0.13871383 1.91638497 0 0 Z " fill="#0E7DD9" transform="translate(694,411)"/>
<path d="M0 0 C0 0.99 0 1.98 0 3 C-0.61875 3.2475 -1.2375 3.495 -1.875 3.75 C-4.09731195 4.79781789 -4.09731195 4.79781789 -4.875 6.75 C-6.58698137 10.17396275 -9.24157779 12.36150919 -12 15 C-10.59023295 18.03852705 -8.91129772 20.5939595 -6.875 23.25 C-6.33617187 23.95640625 -5.79734375 24.6628125 -5.2421875 25.390625 C-4.83226562 25.92171875 -4.42234375 26.4528125 -4 27 C-7.44428265 25.55218207 -9.36130962 23.72305391 -11.75 20.875 C-12.36359375 20.15054687 -12.9771875 19.42609375 -13.609375 18.6796875 C-14.06828125 18.12539063 -14.5271875 17.57109375 -15 17 C-13.36210039 13.32857284 -11.28878871 11.21582945 -8.33984375 8.5625 C-6.84675388 7.05727098 -6.84675388 7.05727098 -6.47265625 4.88671875 C-6.31667969 4.26410156 -6.16070313 3.64148438 -6 3 C-3.5 1.8125 -3.5 1.8125 -1 1 C-0.67 0.67 -0.34 0.34 0 0 Z " fill="#0782E2" transform="translate(528,405)"/>
<path d="M0 0 C1.81624092 1.81624092 3.55228347 3.6289895 5.25 5.5625 C9.42612199 9.26406267 13.04781511 10.03424886 18.5625 9.9375 C24.2007786 8.39978766 27.80557831 4.79163254 31 0 C30.58443583 4.84824868 28.62551755 6.88036862 25 10 C20.70145469 12.53322896 16.8805798 12.64112707 12 12 C7.55147074 10.62400501 4.19135988 8.72789415 1.5 4.875 C0 2 0 2 0 0 Z " fill="#077BDA" transform="translate(545,360)"/>
<path d="M0 0 C8.99389821 0.03979601 17.43784686 2.64561095 24.05859375 8.96484375 C27.10722947 12.77381068 28.750878 16.01756004 29 21 C25.89223172 17.89223172 24.37831679 14.13495038 23 10 C21.14616649 8.87752 21.14616649 8.87752 19 8 C18.42121094 7.68160156 17.84242188 7.36320313 17.24609375 7.03515625 C11.72717683 4.06709942 6.07175954 2.47329459 0 1 C0 0.67 0 0.34 0 0 Z " fill="#0880DE" transform="translate(319,555)"/>
<path d="M0 0 C3.2645028 3.2645028 3.93236055 7.41047299 4.125 11.9375 C4.08375 12.618125 4.0425 13.29875 4 14 C4.66 14 5.32 14 6 14 C6 18.29 6 22.58 6 27 C5.67 27 5.34 27 5 27 C4.1617875 23.06352226 3.33026745 19.12566049 2.5 15.1875 C2.14228516 13.50817383 2.14228516 13.50817383 1.77734375 11.79492188 C1.55175781 10.72177734 1.32617188 9.64863281 1.09375 8.54296875 C0.88427734 7.55321045 0.67480469 6.56345215 0.45898438 5.54370117 C0 3 0 3 0 0 Z " fill="#0882E2" transform="translate(688,383)"/>
<path d="M0 0 C0.969375 0.845625 1.93875 1.69125 2.9375 2.5625 C7.17152248 6.19785946 11.57169222 9.60596819 16 13 C15.01 13.495 15.01 13.495 14 14 C8.90114613 10.35056652 4.22616534 6.64878188 0 2 C0 1.34 0 0.68 0 0 Z " fill="#0A82E1" transform="translate(338,673)"/>
<path d="M0 0 C0.66 0 1.32 0 2 0 C2 0.66 2 1.32 2 2 C2.99 2.33 3.98 2.66 5 3 C6.70993434 4.6222454 8.37347684 6.29413425 10 8 C10.763125 8.721875 11.52625 9.44375 12.3125 10.1875 C14 12 14 12 14 14 C13.34 14 12.68 14 12 14 C12 13.34 12 12.68 12 12 C10.68 11.34 9.36 10.68 8 10 C8 9.34 8 8.68 8 8 C7.360625 7.731875 6.72125 7.46375 6.0625 7.1875 C4 6 4 6 3 3 C2.34 3 1.68 3 1 3 C0.67 2.01 0.34 1.02 0 0 Z " fill="#0585E4" transform="translate(530,474)"/>
<path d="M0 0 C0.33 0.66 0.66 1.32 1 2 C1.66 2 2.32 2 3 2 C2.03644647 11.41002278 2.03644647 11.41002278 1 16 C0.67 16 0.34 16 0 16 C0 10.72 0 5.44 0 0 Z " fill="#078CED" transform="translate(322,406)"/>
<path d="M0 0 C0.90105469 0.02707031 1.80210937 0.05414063 2.73046875 0.08203125 C3.76107422 0.13423828 3.76107422 0.13423828 4.8125 0.1875 C2.22323669 2.77676331 0.78544721 2.56148043 -2.8125 2.8125 C-3.81539062 2.88726562 -4.81828125 2.96203125 -5.8515625 3.0390625 C-7.00785156 3.11253906 -7.00785156 3.11253906 -8.1875 3.1875 C-5.67753317 0.01043235 -3.96125134 -0.15433447 0 0 Z " fill="#0594F2" transform="translate(552.1875,316.8125)"/>
<path d="M0 0 C0.33 0 0.66 0 1 0 C1 2.97 1 5.94 1 9 C0.01 9 -0.98 9 -2 9 C-2.25 3.375 -2.25 3.375 0 0 Z " fill="#0A9CF8" transform="translate(695,443)"/>
<path d="M0 0 C0.125 3.375 0.125 3.375 0 7 C-0.66 7.66 -1.32 8.32 -2 9 C-2.33 6.36 -2.66 3.72 -3 1 C-1 0 -1 0 0 0 Z " fill="#089CF8" transform="translate(624,609)"/>
<path d="M0 0 C1.65 0 3.3 0 5 0 C5 0.33 5 0.66 5 1 C3.35 1 1.7 1 0 1 C0 0.67 0 0.34 0 0 Z " fill="#079EFC" transform="translate(527,269)"/>
<path d="M0 0 C3 1 3 1 3 1 Z " fill="#0B9BF6" transform="translate(620,783)"/>
<path d="M0 0 C3 1 3 1 3 1 Z " fill="#099EFC" transform="translate(556,783)"/>
<path d="M0 0 C0.33 0.66 0.66 1.32 1 2 C0.34 1.67 -0.32 1.34 -1 1 C-0.67 0.67 -0.34 0.34 0 0 Z " fill="#0CA0FE" transform="translate(650,322)"/>
<path d="M0 0 C3 1 3 1 3 1 Z " fill="#0AA0FE" transform="translate(578,278)"/>
<path d="M0 0 C0.33 0.66 0.66 1.32 1 2 C0.34 1.67 -0.32 1.34 -1 1 C-0.67 0.67 -0.34 0.34 0 0 Z " fill="#0AA1FA" transform="translate(454,248)"/>
<path d="M0 0 C2 1 2 1 2 1 Z " fill="#0A9FF9" transform="translate(608,783)"/>
<path d="M0 0 C2 1 2 1 2 1 Z " fill="#0A9DFB" transform="translate(604,783)"/>
<path d="M0 0 C2 1 2 1 2 1 Z " fill="#0BA0FA" transform="translate(580,783)"/>
<path d="M0 0 C2 1 2 1 2 1 Z " fill="#08A0FB" transform="translate(576,783)"/>
<path d="M0 0 C2 1 2 1 2 1 Z " fill="#089EFB" transform="translate(568,783)"/>
<path d="M0 0 C2 1 2 1 2 1 Z " fill="#089FFC" transform="translate(552,783)"/>
<path d="M0 0 C2 1 2 1 2 1 Z " fill="#0BA0FB" transform="translate(524,783)"/>
<path d="M0 0 C2 1 2 1 2 1 Z " fill="#0BA0FA" transform="translate(516,783)"/>
<path d="M0 0 C2 1 2 1 2 1 Z " fill="#0C9FFA" transform="translate(484,783)"/>
<path d="M0 0 C2 1 2 1 2 1 Z " fill="#099FFC" transform="translate(476,783)"/>
<path d="M0 0 C2 1 2 1 2 1 Z " fill="#089FFB" transform="translate(472,783)"/>
<path d="M0 0 C2 1 2 1 2 1 Z " fill="#099DF9" transform="translate(464,783)"/>
<path d="" fill="#0C9BF6" transform="translate(0,0)"/>
<path d="M0 0 C2 1 2 1 2 1 Z " fill="#0B9EF8" transform="translate(316,582)"/>
<path d="M0 0 C2 1 2 1 2 1 Z " fill="#0AA1FA" transform="translate(584,543)"/>
<path d="M0 0 C2 1 2 1 2 1 Z " fill="#0BA1FB" transform="translate(580,543)"/>
<path d="M0 0 C2 1 2 1 2 1 Z " fill="#0BA1F9" transform="translate(572,543)"/>
<path d="M0 0 C2 1 2 1 2 1 Z " fill="#0AA1FC" transform="translate(568,543)"/>
<path d="M0 0 C2 1 2 1 2 1 Z " fill="#109DF9" transform="translate(558,539)"/>
<path d="M0 0 C2 1 2 1 2 1 Z " fill="#099FFB" transform="translate(538,486)"/>
<path d="" fill="#0DA3FC" transform="translate(0,0)"/>
<path d="M0 0 C2 1 2 1 2 1 Z " fill="#0BA1FC" transform="translate(688,463)"/>
<path d="" fill="#0EA2FC" transform="translate(0,0)"/>
<path d="" fill="#0DA0FC" transform="translate(0,0)"/>
<path d="" fill="#0CA0FC" transform="translate(0,0)"/>
<path d="" fill="#0B9EF8" transform="translate(0,0)"/>
<path d="M0 0 C2 1 2 1 2 1 Z " fill="#0A9FFD" transform="translate(468,276)"/>
<path d="M0 0 C2 1 2 1 2 1 Z " fill="#09A0FC" transform="translate(493,271)"/>
<path d="M0 0 C2 1 2 1 2 1 Z " fill="#0AA3FB" transform="translate(497,240)"/>
<path d="" fill="#3E7695" transform="translate(0,0)"/>
<path d="" fill="#3B789A" transform="translate(0,0)"/>
<path d="" fill="#3B7798" transform="translate(0,0)"/>
<path d="" fill="#3C799B" transform="translate(0,0)"/>
<path d="" fill="#0B9CF9" transform="translate(0,0)"/>
<path d="" fill="#0D9CF6" transform="translate(0,0)"/>
<path d="" fill="#0B9FFB" transform="translate(0,0)"/>
<path d="" fill="#0AA1FC" transform="translate(0,0)"/>
<path d="" fill="#0AA0FA" transform="translate(0,0)"/>
<path d="" fill="#0BA0FE" transform="translate(0,0)"/>
<path d="" fill="#089FFC" transform="translate(0,0)"/>
<path d="" fill="#0A9EFC" transform="translate(0,0)"/>
<path d="" fill="#0A9EFB" transform="translate(0,0)"/>
<path d="" fill="#089EFE" transform="translate(0,0)"/>
<path d="" fill="#079FFD" transform="translate(0,0)"/>
<path d="" fill="#09A1FD" transform="translate(0,0)"/>
<path d="" fill="#099FFB" transform="translate(0,0)"/>
<path d="" fill="#099DFC" transform="translate(0,0)"/>
<path d="" fill="#0BA0FD" transform="translate(0,0)"/>
<path d="" fill="#0A9FFC" transform="translate(0,0)"/>
<path d="" fill="#099EFA" transform="translate(0,0)"/>
<path d="" fill="#0B9CFA" transform="translate(0,0)"/>
<path d="" fill="#129AF4" transform="translate(0,0)"/>
<path d="" fill="#119AF0" transform="translate(0,0)"/>
<path d="" fill="#0E9CF9" transform="translate(0,0)"/>
<path d="" fill="#0D9CF3" transform="translate(0,0)"/>
<path d="" fill="#0E9BF4" transform="translate(0,0)"/>
<path d="" fill="#119CF5" transform="translate(0,0)"/>
<path d="" fill="#0D9EF8" transform="translate(0,0)"/>
<path d="" fill="#119BF5" transform="translate(0,0)"/>
<path d="" fill="#08A0FD" transform="translate(0,0)"/>
<path d="" fill="#0D9EFC" transform="translate(0,0)"/>
<path d="" fill="#0CA2FC" transform="translate(0,0)"/>
<path d="" fill="#0F9CFA" transform="translate(0,0)"/>
<path d="" fill="#0D9FF9" transform="translate(0,0)"/>
<path d="" fill="#0C9FFA" transform="translate(0,0)"/>
<path d="" fill="#0CA1F8" transform="translate(0,0)"/>
<path d="" fill="#0AA1FB" transform="translate(0,0)"/>
<path d="" fill="#0F9DFA" transform="translate(0,0)"/>
<path d="" fill="#0E9DFB" transform="translate(0,0)"/>
<path d="" fill="#109EF6" transform="translate(0,0)"/>
<path d="" fill="#119FF6" transform="translate(0,0)"/>
<path d="" fill="#11A0F6" transform="translate(0,0)"/>
<path d="" fill="#0C9DF1" transform="translate(0,0)"/>
<path d="" fill="#0C9AF5" transform="translate(0,0)"/>
<path d="" fill="#3A83AE" transform="translate(0,0)"/>
<path d="" fill="#109FFA" transform="translate(0,0)"/>
<path d="" fill="#10A6FE" transform="translate(0,0)"/>
<path d="" fill="#0D9EFB" transform="translate(0,0)"/>
<path d="" fill="#0EA1FA" transform="translate(0,0)"/>
<path d="" fill="#10A0FA" transform="translate(0,0)"/>
<path d="" fill="#11A0F9" transform="translate(0,0)"/>
<path d="" fill="#0CA1F8" transform="translate(0,0)"/>
<path d="" fill="#0C9EF7" transform="translate(0,0)"/>
<path d="" fill="#0D9DFC" transform="translate(0,0)"/>
<path d="" fill="#0C9FFC" transform="translate(0,0)"/>
<path d="" fill="#0EA4FE" transform="translate(0,0)"/>
<path d="" fill="#0F9BF6" transform="translate(0,0)"/>
<path d="" fill="#0F9EF7" transform="translate(0,0)"/>
<path d="" fill="#0E9CF7" transform="translate(0,0)"/>
<path d="" fill="#0C9EFA" transform="translate(0,0)"/>
<path d="" fill="#0D9EF8" transform="translate(0,0)"/>
<path d="" fill="#0FA2FB" transform="translate(0,0)"/>
<path d="" fill="#0CA2FB" transform="translate(0,0)"/>
<path d="" fill="#0FA1FD" transform="translate(0,0)"/>
<path d="" fill="#109FFD" transform="translate(0,0)"/>
<path d="" fill="#0C9EFB" transform="translate(0,0)"/>
<path d="" fill="#0BA1F8" transform="translate(0,0)"/>
<path d="" fill="#12A0F9" transform="translate(0,0)"/>
<path d="" fill="#0F9EFA" transform="translate(0,0)"/>
<path d="" fill="#0CA1FA" transform="translate(0,0)"/>
<path d="" fill="#0E9DFB" transform="translate(0,0)"/>
<path d="" fill="#0D9BF4" transform="translate(0,0)"/>
<path d="" fill="#10A0F8" transform="translate(0,0)"/>
<path d="" fill="#0C9AF4" transform="translate(0,0)"/>
<path d="" fill="#0D9BF6" transform="translate(0,0)"/>
<path d="" fill="#0E9EF7" transform="translate(0,0)"/>
<path d="" fill="#0FA2F9" transform="translate(0,0)"/>
<path d="" fill="#0DA2FD" transform="translate(0,0)"/>
<path d="" fill="#0D9DF7" transform="translate(0,0)"/>
<path d="" fill="#0EA1FE" transform="translate(0,0)"/>
<path d="" fill="#0A9EFB" transform="translate(0,0)"/>
<path d="" fill="#0CA1FB" transform="translate(0,0)"/>
<path d="" fill="#0B9EFA" transform="translate(0,0)"/>
<path d="" fill="#10A2F8" transform="translate(0,0)"/>
<path d="" fill="#0C9DF5" transform="translate(0,0)"/>
<path d="" fill="#0D9CF8" transform="translate(0,0)"/>
<path d="" fill="#0DA8FF" transform="translate(0,0)"/>
<path d="" fill="#0CA5FC" transform="translate(0,0)"/>
<path d="" fill="#0EA2FA" transform="translate(0,0)"/>
<path d="" fill="#0C9CF9" transform="translate(0,0)"/>
<path d="" fill="#0EA1FF" transform="translate(0,0)"/>
<path d="" fill="#0E9DFB" transform="translate(0,0)"/>
<path d="" fill="#0E9EF8" transform="translate(0,0)"/>
<path d="" fill="#0EA0F7" transform="translate(0,0)"/>
<path d="" fill="#0BA3FE" transform="translate(0,0)"/>
<path d="" fill="#0BADFF" transform="translate(0,0)"/>
<path d="" fill="#0DA2FF" transform="translate(0,0)"/>
<path d="" fill="#0EA0FA" transform="translate(0,0)"/>
<path d="" fill="#0CA1FD" transform="translate(0,0)"/>
<path d="" fill="#0A9DFB" transform="translate(0,0)"/>
<path d="" fill="#0DA3FC" transform="translate(0,0)"/>
<path d="" fill="#0C9EF8" transform="translate(0,0)"/>
<path d="" fill="#119DFE" transform="translate(0,0)"/>
<path d="" fill="#0DA1FD" transform="translate(0,0)"/>
<path d="" fill="#089FFA" transform="translate(0,0)"/>
<path d="" fill="#0CA1FA" transform="translate(0,0)"/>
<path d="" fill="#0DA3FF" transform="translate(0,0)"/>
<path d="" fill="#11A2FA" transform="translate(0,0)"/>
<path d="" fill="#0CA4FC" transform="translate(0,0)"/>
<path d="" fill="#09A0FE" transform="translate(0,0)"/>
<path d="" fill="#08A3FD" transform="translate(0,0)"/>
<path d="" fill="#09A1FF" transform="translate(0,0)"/>
<path d="" fill="#089CFC" transform="translate(0,0)"/>
<path d="" fill="#0C9EFA" transform="translate(0,0)"/>
<path d="" fill="#0AA0FB" transform="translate(0,0)"/>
<path d="" fill="#0B9EFA" transform="translate(0,0)"/>
<path d="" fill="#0CA4FB" transform="translate(0,0)"/>
<path d="" fill="#0D9EF9" transform="translate(0,0)"/>
<path d="" fill="#0C9FF9" transform="translate(0,0)"/>
<path d="" fill="#0E9DFA" transform="translate(0,0)"/>
<path d="" fill="#0EA1FC" transform="translate(0,0)"/>
<path d="" fill="#0DA0FE" transform="translate(0,0)"/>
<path d="" fill="#0BA1FF" transform="translate(0,0)"/>
<path d="" fill="#0E9FFC" transform="translate(0,0)"/>
<path d="" fill="#0CA0FE" transform="translate(0,0)"/>
<path d="" fill="#09A2FB" transform="translate(0,0)"/>
<path d="" fill="#0CA0FD" transform="translate(0,0)"/>
<path d="" fill="#139EFA" transform="translate(0,0)"/>
<path d="" fill="#0EA1FC" transform="translate(0,0)"/>
<path d="" fill="#0FA1FA" transform="translate(0,0)"/>
<path d="" fill="#0DA1FD" transform="translate(0,0)"/>
<path d="" fill="#099FFA" transform="translate(0,0)"/>
<path d="" fill="#0BA0FC" transform="translate(0,0)"/>
<path d="" fill="#0BA0FD" transform="translate(0,0)"/>
<path d="" fill="#08A1FB" transform="translate(0,0)"/>
<path d="" fill="#06A3FC" transform="translate(0,0)"/>
<path d="" fill="#0CA4FE" transform="translate(0,0)"/>
<path d="" fill="#0DA1FF" transform="translate(0,0)"/>
<path d="" fill="#08A2FD" transform="translate(0,0)"/>
<path d="" fill="#0CA1FE" transform="translate(0,0)"/>
<path d="" fill="#09A6FC" transform="translate(0,0)"/>
<path d="" fill="#0BA0FB" transform="translate(0,0)"/>
<path d="" fill="#0B9EFF" transform="translate(0,0)"/>
<path d="" fill="#0BA3FF" transform="translate(0,0)"/>
<path d="" fill="#0FA0FF" transform="translate(0,0)"/>
<path d="" fill="#0FA0FC" transform="translate(0,0)"/>
<path d="" fill="#0DA0F7" transform="translate(0,0)"/>
<path d="" fill="#0E9FF9" transform="translate(0,0)"/>
<path d="" fill="#0FA3FE" transform="translate(0,0)"/>
<path d="" fill="#0C9FFA" transform="translate(0,0)"/>
<path d="" fill="#08A3FF" transform="translate(0,0)"/>
<path d="" fill="#0CA3FE" transform="translate(0,0)"/>
<path d="" fill="#09A3FF" transform="translate(0,0)"/>
<path d="" fill="#08A1FE" transform="translate(0,0)"/>
<path d="" fill="#07A2FB" transform="translate(0,0)"/>
<path d="" fill="#0BA3FD" transform="translate(0,0)"/>
<path d="" fill="#0BA1FF" transform="translate(0,0)"/>
<path d="" fill="#0B9DFD" transform="translate(0,0)"/>
<path d="" fill="#0A9FFF" transform="translate(0,0)"/>
<path d="" fill="#0BA0FB" transform="translate(0,0)"/>
<path d="" fill="#089FFA" transform="translate(0,0)"/>
<path d="" fill="#0E9EFF" transform="translate(0,0)"/>
<path d="" fill="#3F7998" transform="translate(0,0)"/>
<path d="" fill="#0BA0FC" transform="translate(0,0)"/>
<path d="" fill="#0EA0FD" transform="translate(0,0)"/>
<path d="" fill="#06A2FF" transform="translate(0,0)"/>
<path d="" fill="#0BA2FF" transform="translate(0,0)"/>
<path d="" fill="#0B9FFE" transform="translate(0,0)"/>
<path d="" fill="#0AA4FD" transform="translate(0,0)"/>
<path d="" fill="#0CA1FE" transform="translate(0,0)"/>
<path d="" fill="#07A2FD" transform="translate(0,0)"/>
<path d="" fill="#0DA0FC" transform="translate(0,0)"/>
<path d="" fill="#0C9EFD" transform="translate(0,0)"/>
<path d="" fill="#099EFF" transform="translate(0,0)"/>
<path d="" fill="#0C9DFB" transform="translate(0,0)"/>
<path d="" fill="#0BA4FB" transform="translate(0,0)"/>
<path d="" fill="#0BA0FD" transform="translate(0,0)"/>
<path d="" fill="#0AA0FE" transform="translate(0,0)"/>
<path d="" fill="#08A0FC" transform="translate(0,0)"/>
<path d="" fill="#0C9EF9" transform="translate(0,0)"/>
<path d="" fill="#0E9EFB" transform="translate(0,0)"/>
<path d="" fill="#0E9DFA" transform="translate(0,0)"/>
<path d="" fill="#0AA1FF" transform="translate(0,0)"/>
<path d="" fill="#07A2FD" transform="translate(0,0)"/>
<path d="" fill="#09A1FE" transform="translate(0,0)"/>
<path d="" fill="#099FFC" transform="translate(0,0)"/>
<path d="" fill="#0B9FFB" transform="translate(0,0)"/>
<path d="" fill="#0A9EF9" transform="translate(0,0)"/>
<path d="" fill="#05A3FF" transform="translate(0,0)"/>
<path d="" fill="#09A1FF" transform="translate(0,0)"/>
<path d="" fill="#09A4FF" transform="translate(0,0)"/>
<path d="" fill="#06A1FE" transform="translate(0,0)"/>
<path d="" fill="#05A1FE" transform="translate(0,0)"/>
<path d="" fill="#079FFD" transform="translate(0,0)"/>
<path d="" fill="#0CA2FD" transform="translate(0,0)"/>
<path d="" fill="#04A0F8" transform="translate(0,0)"/>
<path d="" fill="#09A4FA" transform="translate(0,0)"/>
<path d="" fill="#0DA1FE" transform="translate(0,0)"/>
<path d="" fill="#0C9CFC" transform="translate(0,0)"/>
<path d="" fill="#0DA2F9" transform="translate(0,0)"/>
<path d="" fill="#0D9FFA" transform="translate(0,0)"/>
<path d="" fill="#0BA4FE" transform="translate(0,0)"/>
<path d="" fill="#0AA1FD" transform="translate(0,0)"/>
<path d="" fill="#0DA0FE" transform="translate(0,0)"/>
<path d="" fill="#0AA1FD" transform="translate(0,0)"/>
<path d="" fill="#0A9FFC" transform="translate(0,0)"/>
<path d="" fill="#109EFA" transform="translate(0,0)"/>
<path d="" fill="#0DA1FF" transform="translate(0,0)"/>
<path d="" fill="#099DFA" transform="translate(0,0)"/>
<path d="" fill="#0CA1FB" transform="translate(0,0)"/>
<path d="" fill="#0BA1FF" transform="translate(0,0)"/>
<path d="" fill="#089EFC" transform="translate(0,0)"/>
<path d="" fill="#0BA0FD" transform="translate(0,0)"/>
<path d="" fill="#0AA2FE" transform="translate(0,0)"/>
<path d="" fill="#0EA1FF" transform="translate(0,0)"/>
<path d="" fill="#0A9EF8" transform="translate(0,0)"/>
<path d="" fill="#129AF8" transform="translate(0,0)"/>
<path d="" fill="#0CA1FD" transform="translate(0,0)"/>
<path d="" fill="#0E9BFA" transform="translate(0,0)"/>
<path d="" fill="#0EA0F7" transform="translate(0,0)"/>
<path d="" fill="#08A4FB" transform="translate(0,0)"/>
<path d="" fill="#05A2FF" transform="translate(0,0)"/>
<path d="" fill="#0BA0FB" transform="translate(0,0)"/>
<path d="" fill="#099BFE" transform="translate(0,0)"/>
<path d="" fill="#09A1FD" transform="translate(0,0)"/>
<path d="" fill="#0DA0F9" transform="translate(0,0)"/>
<path d="" fill="#099DFC" transform="translate(0,0)"/>
<path d="" fill="#109FFA" transform="translate(0,0)"/>
<path d="" fill="#0AA0FF" transform="translate(0,0)"/>
<path d="" fill="#109BFA" transform="translate(0,0)"/>
<path d="" fill="#0AA0FC" transform="translate(0,0)"/>
<path d="" fill="#0BA2FE" transform="translate(0,0)"/>
<path d="" fill="#0A9DFD" transform="translate(0,0)"/>
<path d="" fill="#0AA1FD" transform="translate(0,0)"/>
<path d="" fill="#099FFD" transform="translate(0,0)"/>
<path d="" fill="#0B9FFD" transform="translate(0,0)"/>
<path d="" fill="#0B9DFE" transform="translate(0,0)"/>
<path d="" fill="#0DA0FE" transform="translate(0,0)"/>
<path d="" fill="#0AA1FC" transform="translate(0,0)"/>
<path d="" fill="#0BA2FF" transform="translate(0,0)"/>
<path d="" fill="#07A0FB" transform="translate(0,0)"/>
<path d="" fill="#0CA1FF" transform="translate(0,0)"/>
<path d="" fill="#0D9FFE" transform="translate(0,0)"/>
<path d="" fill="#099FFD" transform="translate(0,0)"/>
<path d="" fill="#0BA1FD" transform="translate(0,0)"/>
<path d="" fill="#10A1FE" transform="translate(0,0)"/>
<path d="" fill="#0BA4FC" transform="translate(0,0)"/>
<path d="" fill="#0DA4FD" transform="translate(0,0)"/>
<path d="" fill="#0D9DFC" transform="translate(0,0)"/>
<path d="" fill="#0F9EFC" transform="translate(0,0)"/>
<path d="" fill="#0DA1FC" transform="translate(0,0)"/>
<path d="" fill="#0A9FFD" transform="translate(0,0)"/>
<path d="" fill="#11A1FC" transform="translate(0,0)"/>
<path d="" fill="#0CA3FC" transform="translate(0,0)"/>
<path d="" fill="#0F9BFA" transform="translate(0,0)"/>
<path d="" fill="#0DA0FC" transform="translate(0,0)"/>
<path d="" fill="#0DA5FB" transform="translate(0,0)"/>
<path d="" fill="#10A3FB" transform="translate(0,0)"/>
<path d="" fill="#0D9DFB" transform="translate(0,0)"/>
<path d="" fill="#109FFC" transform="translate(0,0)"/>
<path d="" fill="#0AA0FA" transform="translate(0,0)"/>
<path d="" fill="#0EA1FC" transform="translate(0,0)"/>
<path d="" fill="#0CA4FD" transform="translate(0,0)"/>
<path d="" fill="#0BA4FC" transform="translate(0,0)"/>
<path d="" fill="#3D7798" transform="translate(0,0)"/>
<path d="" fill="#407694" transform="translate(0,0)"/>
<path d="" fill="#407593" transform="translate(0,0)"/>
<path d="" fill="#3F7593" transform="translate(0,0)"/>
<path d="" fill="#3F7795" transform="translate(0,0)"/>
<path d="" fill="#417391" transform="translate(0,0)"/>
<path d="" fill="#3B7B9F" transform="translate(0,0)"/>
</svg>
